<svg xmlns="http://www.w3.org/2000/svg" xmlns:xlink="http://www.w3.org/1999/xlink" width="2110" height="1470"><defs><marker id="Z" orient="auto" overflow="visible"><path fill="#fff" fill-rule="evenodd" stroke="#fff" stroke-width=".8pt" d="M4.616 0l-6.92 4v-8l6.92 4z"/></marker><marker id="aa" orient="auto" overflow="visible"><path fill="#fff" fill-rule="evenodd" stroke="#fff" stroke-width=".8pt" d="M-4.616 0l6.92-4v8l-6.92-4z"/></marker><linearGradient id="g"><stop offset="0" stop-color="#1a1a1a"/><stop offset=".2571" stop-color="#fff"/><stop offset=".7333" stop-color="#e6e6e6"/><stop offset="1" stop-color="#333"/></linearGradient><linearGradient id="a"><stop offset="0" stop-color="gray"/><stop offset=".0532" stop-color="#e6e6e6"/><stop offset=".1176" stop-color="#9b9b9b"/><stop offset=".2023" stop-color="#b6b6b6"/><stop offset=".2731" stop-color="#ececec"/><stop offset=".2736" stop-color="#fff"/><stop offset=".3964" stop-color="#f3f3f3"/><stop offset=".4055" stop-color="#e6e6e6"/><stop offset=".5926" stop-color="#666"/><stop offset=".8785" stop-color="#fff"/><stop offset=".8785" stop-color="#ccc"/><stop offset="1" stop-color="#999"/></linearGradient><linearGradient id="k"><stop offset="0"/><stop offset="1" stop-opacity="0"/></linearGradient><linearGradient id="j"><stop offset="0"/><stop offset="1" stop-opacity="0"/></linearGradient><linearGradient id="f"><stop offset="0" stop-color="#b3b3b3"/><stop offset=".1262" stop-color="#e6e6e6"/><stop offset=".3551" stop-color="#999"/><stop offset=".7515" stop-color="#fff"/><stop offset="1" stop-color="#666"/></linearGradient><linearGradient id="b"><stop offset="0" stop-color="#4d4d4d"/><stop offset="1" stop-color="#e6e6e6"/></linearGradient><filter id="E" color-interpolation-filters="sRGB"><feGaussianBlur stdDeviation="4.4625"/></filter><filter id="H" color-interpolation-filters="sRGB"><feGaussianBlur stdDeviation="6.7247"/></filter><linearGradient id="c"><stop offset="0" stop-color="#999"/><stop offset=".3403" stop-color="#ccc"/><stop offset=".3661" stop-color="#666" stop-opacity=".9686"/><stop offset=".4224" stop-color="#e6e6e6"/><stop offset=".5862" stop-color="#fff"/><stop offset=".6165" stop-color="#666" stop-opacity=".9373"/><stop offset=".6382"/><stop offset=".6627" stop-color="#e6e6e6"/><stop offset=".7353" stop-color="#999"/><stop offset=".7756" stop-color="#fff"/><stop offset="1" stop-color="#999"/></linearGradient><linearGradient id="i"><stop offset="0" stop-color="#333"/><stop offset="1" stop-color="#fff" stop-opacity="0"/></linearGradient><linearGradient id="d"><stop offset="0" stop-color="#fff"/><stop offset="1" stop-color="#4d4d4d"/></linearGradient><linearGradient id="e"><stop offset="0" stop-color="#fff"/><stop offset="1" stop-color="#fff" stop-opacity="0"/></linearGradient><linearGradient id="h"><stop offset="0" stop-color="#333"/><stop offset="1" stop-color="#fff"/></linearGradient><filter id="J" color-interpolation-filters="sRGB"><feGaussianBlur stdDeviation=".6"/></filter><linearGradient id="F" x1="3.9491" x2="1016.1169" y1="5.2393" y2="799.6461" gradientTransform="matrix(1.9822 0 0 1.47648 -28.8684 -559.5933)" gradientUnits="userSpaceOnUse" xlink:href="#a"/><linearGradient id="G" x1="30" x2="990" y1="385.5" y2="385.5" gradientTransform="matrix(2.0008 0 0 1.4804 -37.3547 -566.5926)" gradientUnits="userSpaceOnUse" xlink:href="#b"/><linearGradient id="I" x1="241.7945" x2="374.3986" y1="553.3468" y2="642.2402" gradientTransform="matrix(.12972 0 0 .13435 965.8798 698.0306)" gradientUnits="userSpaceOnUse" xlink:href="#c"/><linearGradient id="K" x1="906" x2="927" y1="755" y2="755" gradientUnits="userSpaceOnUse" xlink:href="#d"/><linearGradient id="L" x1="916" x2="915.5938" y1="746.0938" y2="763.5938" gradientTransform="matrix(.66875 0 0 .55 307.5281 345.25)" gradientUnits="userSpaceOnUse" xlink:href="#e"/><linearGradient id="M" x1="906" x2="927" y1="755" y2="755" gradientUnits="userSpaceOnUse" xlink:href="#d"/><linearGradient id="N" x1="916" x2="915.5938" y1="746.0938" y2="763.5938" gradientTransform="matrix(.66875 0 0 .55 307.5281 345.25)" gradientUnits="userSpaceOnUse" xlink:href="#e"/><linearGradient id="O" x1="906" x2="927" y1="755" y2="755" gradientUnits="userSpaceOnUse" xlink:href="#d"/><linearGradient id="P" x1="916" x2="915.5938" y1="746.0938" y2="763.5938" gradientTransform="matrix(.66875 0 0 .55 307.5281 345.25)" gradientUnits="userSpaceOnUse" xlink:href="#e"/><linearGradient id="Q" x1="1010.8884" x2="1191.4036" y1="752.6403" y2="752.6403" gradientUnits="userSpaceOnUse" xlink:href="#d"/><linearGradient id="R" x1="791.6589" x2="1124.1562" y1="738.5087" y2="1065.5109" gradientUnits="userSpaceOnUse" xlink:href="#f"/><linearGradient id="S" x1="721.0765" x2="1186.6976" y1="902.9033" y2="902.9033" gradientUnits="userSpaceOnUse" xlink:href="#g"/><linearGradient id="T" x1="1023.5516" x2="1178.7404" y1="752.6403" y2="752.6403" gradientUnits="userSpaceOnUse" xlink:href="#h"/><linearGradient id="U" x1="993.152" x2="1142.3051" y1="226.671" y2="383.8385" gradientTransform="matrix(.72153 0 0 .73067 339.1882 526.0143)" gradientUnits="userSpaceOnUse" xlink:href="#e"/><linearGradient id="V" x1="765" x2="1035.8334" y1="674.1667" y2="557.5" gradientTransform="matrix(.751 0 0 .751 311.9683 524.2106)" gradientUnits="userSpaceOnUse" xlink:href="#i"/><linearGradient id="W" x1="873.9746" x2="1109.901" y1="972.5025" y2="972.5025" gradientUnits="userSpaceOnUse" xlink:href="#j"/><linearGradient id="X" x1="798.3334" x2="719.1667" y1="304.1667" y2="649.1667" gradientTransform="matrix(.751 0 0 .751 311.9683 524.2106)" gradientUnits="userSpaceOnUse" xlink:href="#d"/><linearGradient id="Y" x1="804.3568" x2="949.1775" y1="882.6171" y2="882.6171" gradientUnits="userSpaceOnUse" xlink:href="#k"/><filter id="u" color-interpolation-filters="sRGB"><feGaussianBlur stdDeviation="1.01"/></filter><filter id="r" color-interpolation-filters="sRGB"><feGaussianBlur stdDeviation="1.01"/></filter><filter id="z" color-interpolation-filters="sRGB"><feGaussianBlur stdDeviation=".4239"/></filter><filter id="B" color-interpolation-filters="sRGB"><feGaussianBlur stdDeviation=".3693"/></filter><filter id="D" color-interpolation-filters="sRGB"><feGaussianBlur stdDeviation=".7571"/></filter><linearGradient id="n"><stop offset="0"/><stop offset="1" stop-opacity="0"/></linearGradient><linearGradient id="q"><stop offset="0" stop-color="#fff"/><stop offset="1" stop-color="#fff" stop-opacity="0"/></linearGradient><linearGradient id="l"><stop offset="0" stop-color="#1a1a1a"/><stop offset=".2979" stop-color="#fff"/><stop offset=".688" stop-color="#e6e6e6"/><stop offset="1" stop-color="#333"/></linearGradient><linearGradient id="m"><stop offset="0" stop-color="#1a1a1a"/><stop offset=".3737" stop-color="#fff"/><stop offset=".7333" stop-color="#e6e6e6"/><stop offset="1" stop-color="#333"/></linearGradient><linearGradient id="p"><stop offset="0" stop-color="#333"/><stop offset=".5298" stop-color="#fff"/><stop offset="1" stop-color="#999"/></linearGradient><linearGradient id="o"><stop offset="0" stop-color="#fff"/><stop offset="1" stop-color="#fff" stop-opacity="0"/></linearGradient><linearGradient id="s" x1="504" x2="816" y1="1006" y2="1006" gradientUnits="userSpaceOnUse" xlink:href="#l"/><linearGradient id="t" x1="660" x2="660" y1="1052" y2="960" gradientUnits="userSpaceOnUse" xlink:href="#m"/><linearGradient id="v" x1="656.8221" x2="658.3176" y1="979.6557" y2="961.6824" gradientTransform="translate(-1100.2079 -68.1695) scale(.94565)" gradientUnits="userSpaceOnUse" xlink:href="#n"/><linearGradient id="w" x1="515.0134" x2="806.1019" y1="1003.2283" y2="1008.6871" gradientTransform="matrix(.89663 0 0 .91712 -1073.9813 -41.9032)" gradientUnits="userSpaceOnUse" xlink:href="#o"/><linearGradient id="x" x1="549.6291" x2="616.39" y1="910.455" y2="910.455" gradientTransform="translate(-1064.0775 -85.1865)" gradientUnits="userSpaceOnUse" xlink:href="#p"/><linearGradient id="y" x1="549.6291" x2="616.39" y1="910.455" y2="910.455" gradientTransform="matrix(.7305 0 0 .9953 -903.7583 -81.2106)" gradientUnits="userSpaceOnUse" xlink:href="#q"/><linearGradient id="A" x1="549.6291" x2="616.39" y1="910.455" y2="910.455" gradientTransform="matrix(.7305 0 0 .9953 -903.7583 -81.2106)" gradientUnits="userSpaceOnUse" xlink:href="#q"/><linearGradient id="C" x1="549.6291" x2="583.8783" y1="910.455" y2="914.2227" gradientTransform="matrix(-.7305 0 0 .9953 -44.3342 -80.9606)" gradientUnits="userSpaceOnUse" xlink:href="#n"/></defs><g transform="translate(1535.6124 527.1126)"><ellipse cx="660" cy="1006" fill="none" stroke="#000" filter="url(#r)" rx="156" ry="46" transform="translate(-1136.0775 -117.1865)"/><ellipse cx="660" cy="1006" fill="url(#s)" fill-rule="evenodd" stroke="#000" rx="156" ry="46" transform="translate(-1136.0775 -117.1865)"/><ellipse cx="660" cy="1006" fill="url(#t)" fill-rule="evenodd" rx="156" ry="46" transform="translate(-1136.0775 -122.8434)"/><ellipse cx="660" cy="1006" fill="none" stroke="#fff" stroke-width="3" filter="url(#u)" rx="156" ry="46" transform="translate(-1136.0775 -122.8434)"/><path fill="url(#v)" fill-rule="evenodd" d="M-475.9007 837.0056c-41.07-3.0393-103.0084 8.3339-127.2675 19.3204l258.2234 1.9259c-25.2617-13.8981-77.2215-21.2463-130.956-21.2463z"/><path fill="url(#w)" fill-rule="evenodd" d="M-616.0462 868.4385c-3.9195 3.8883-6.0313 8.0065-6.0313 12.2812 0 23.2995 62.6242 42.1876 139.875 42.1876 77.2508-.0001 139.875-18.888 139.875-42.1876 0-1.5545-.3004-3.0827-.8438-4.5937l-272.875-7.6875z"/><path d="M-449.3275 879.5635l103.75-21.75c-24.6041-10.3236-52.0642-14.9232-80.5-18l-57 38.25c11.25-.5466 22.5-.5954 33.75 1.5z" opacity=".4487"/><path fill="url(#x)" d="M-479.0775 759.8135c-15 37.5-30 75-30 120 1.0007.4475 2.0619.8685 3.1755 1.2627 15.991 5.6598 42.794 5.7735 56.7145-.8866.11-45.3761-14.89-82.8761-29.89-120.3761z"/><path fill="url(#y)" d="M-476.4123 759.8135c-10.9576 37.3235-21.6027 78.897-21.6027 123.6854 14.7581 3.4766 31.497 2.2192 43.8125-1.2507-1.3416-44.8071-14.9406-84.189-22.2098-122.4347z" filter="url(#z)"/><path fill="url(#A)" d="M-476.4123 759.8135C-487.37 797.137-494.265 839.148-494.265 883.9364c8.4103 1.728 12.0295 1.0886 22.4375.9368-8.4197-45.1626-8.1272-80.7362-4.5848-125.0597z" filter="url(#B)"/><path fill="url(#C)" d="M-475.9302 760.5635c10.9576 37.3235 26.8527 74.8346 26.8527 119.6229-6.4103 3.228-8.2795 4.5886-15.1875 4.9368 3.1697-48.6626-.3728-82.9862-11.6652-124.5597z" filter="url(#D)"/><path fill="#fff" d="M-497.8275 883.3135l-109.5 24.5c24.6041 10.3236 55.0642 17.4232 83.5 19l59.75-42c-11.25.5466-22.5.5954-33.75-1.5z"/></g><g transform="translate(74.4408 599.605)"><rect width="1918.3253" height="1078.3253" x="18.1054" y="-518.8487" fill-rule="evenodd" stroke="#000" stroke-width="1.6746" rx="1.7275"/><path d="M43.7447-513.7368L39.805 574.8792l1900.9165-5.2293V-513.7368zm15.8265 8.2574l1867.2817-2.9696-3.9155 1068.3567-1867.2816 2.9696z"/><path fill="#b3b3b3" fill-rule="evenodd" stroke="#000" stroke-width="3.4514" d="M-32.0966-588.3211c-17.0255 0-30.732 10.673-30.732 23.9307v1282.862c0 13.2576 13.7065 23.9307 30.732 23.9307h2028.309c17.0252 0 30.7317-10.6731 30.7317-23.9307v-1282.862c0-13.2576-13.7065-23.9307-30.7317-23.9307zm59.6712 47.8614h1908.9665c16.024 0 28.9393 9.8184 28.9393 22.0362V608.917c0 12.2179-12.9153 22.0362-28.9393 22.0362H27.5746c-16.024 0-28.9392-9.8183-28.9392-22.0362V-518.4235c0-12.2178 12.9152-22.0362 28.9392-22.0362z" opacity=".753"/><path fill="#cf0" d="M1038.1069 659.819v-6.6525h-19.27v6.6526z" opacity=".728"/><path fill-rule="evenodd" d="M15 0C6.69 0 0 6.69 0 15v764.2528c0 8.31 6.69 15 15 15h990c8.31 0 15-6.69 15-15V15c0-8.31-6.69-15-15-15zm20.7681 21.3872l942.8925 3.3126c7.8212 0 14.8214 6.1543 14.8214 13.8125L990 750.4403c0 7.6582-6.3038 13.8125-14.125 13.8125H44.125c-7.8212 0-14.125-6.1542-14.125-13.8125V43.8125c0-7.6582-2.053-22.4253 5.7681-22.4253z" filter="url(#E)" transform="matrix(2.01266 0 0 1.59537 -44.4 -566.1885)"/><path fill="url(#F)" fill-rule="evenodd" d="M.8647-559.5933c-16.4721 0-29.7331 9.8776-29.7331 22.1472V653.2824c0 12.2695 13.261 22.1471 29.7331 22.1471H1963.251c16.4721 0 29.733-9.8776 29.733-22.1471V-537.4461c0-12.2696-13.2609-22.1472-29.733-22.1472zm57.7318 44.2943l1872.152-2.114c15.5032 0 8.3758 1.6879 8.3758 12.9951l-5.6066 1056.3108c0 11.3073-12.4955 20.3939-27.9987 20.3939l-1857.8246.3737c-15.5032 0-21.5565-.8653-21.5565-12.1725l4.46-1055.3931c0-11.3073 12.4954-20.3939 27.9986-20.3939z"/><path fill="url(#G)" d="M22.669-517.7393V572.6132h1920.7598V-517.7393zm16.025 8.3128l1890.6921-2.9895-3.9644 1075.2216L34.7295 565.795z"/></g><g color="#000" font-family="Sans" font-weight="400"><path style="line-height:normal;-inkscape-font-specification:Sans;text-indent:0;text-align:start;text-decoration-line:none;text-transform:none;block-progression:tb;marker:none" fill="none" stroke="#f1ddf0" stroke-width="1.114" d="M941.2392 741a2.5932 2.046 0 0 0-2.5628 2.0873v14.8343a2.5932 2.046 0 1 0 5.185 0v-14.8343A2.5932 2.046 0 0 0 941.2392 741zm-5.3855 6.0912c-.0844.003-.1714.01-.26.0223-8.4008 2.3947-14.5817 10.1465-14.5817 19.2986 0 11.0517 9.012 20.0713 20.0638 20.0713 11.0516 0 20.0712-9.0196 20.0712-20.0712 0-9.0825-6.093-16.7746-14.396-19.2319-2.6634-.235-2.6253 5.3365 0 5.341 5.4823 2.2302 9.3373 7.586 9.3373 13.8909 0 8.3187-6.6938 15.0125-15.0125 15.0125-8.3188 0-15.0126-6.6938-15.0126-15.0125 0-6.3804 3.9431-11.7921 9.5305-13.9726 3.4162-.749 2.8745-5.4231.26-5.3484z" overflow="visible" transform="matrix(.56818 0 0 .58846 1470.4188 769.274)"/><path style="line-height:normal;-inkscape-font-specification:Sans;text-indent:0;text-align:start;text-decoration-line:none;text-transform:none;block-progression:tb;marker:none" fill="#cf0" d="M1334.0005 1101.8753a11.6385 9.1831 0 0 0-11.502 9.3683v66.5785a11.6385 9.1831 0 1 0 23.2708 0v-66.5785a11.6385 9.1831 0 0 0-11.7688-9.3683zm-24.171 27.3381c-.3785.011-.7692.044-1.1668.1-37.7041 10.7478-65.445 45.5391-65.445 86.6154 0 49.6016 40.4477 90.0827 90.0493 90.0827 49.6016 0 90.0827-40.4811 90.0827-90.0827 0-40.7635-27.3462-75.2869-64.6115-86.3153-11.9538-1.0552-11.7827 23.9508 0 23.9709 24.6057 10.0097 41.9075 34.0473 41.9075 62.3444 0 37.3358-30.0429 67.3786-67.3787 67.3786-37.3358 0-67.3786-30.0428-67.3786-67.3786 0-28.6358 17.6972-52.9245 42.7743-62.7111 15.3327-3.3618 12.9012-24.3396 1.1668-24.0043z" filter="url(#H)" overflow="visible" transform="matrix(.12547 0 0 .12995 1837.6597 1062.4716)"/></g><path style="line-height:normal;-inkscape-font-specification:Sans;text-indent:0;text-align:start;text-decoration-line:none;text-transform:none;block-progression:tb;marker:none" fill="none" stroke="url(#I)" stroke-width=".6601" d="M1009.3472 758.6616a1.5098 1.2338 0 0 0-1.492 1.2586v8.9451a1.5098 1.2338 0 1 0 3.0187 0v-8.945a1.5098 1.2338 0 0 0-1.5267-1.2587zm-3.1355 3.673c-.049.002-.1.007-.1514.0134-4.8911 1.444-8.4897 6.1183-8.4897 11.637 0 6.6642 5.247 12.103 11.6815 12.103s11.6858-5.4388 11.6858-12.103c0-5.4767-3.5474-10.115-8.3816-11.5967-1.5507-.1418-1.5285 3.2178 0 3.2206 3.1919 1.3448 5.4364 4.5743 5.4364 8.3762 0 5.0162-3.8973 9.0525-8.7406 9.0525-4.8433 0-8.7406-4.0363-8.7406-9.0525 0-3.8474 2.2957-7.1107 5.5488-8.4255 1.989-.4517 1.6736-3.2701.1514-3.225z" color="#000" font-family="Sans" font-weight="400" overflow="visible" transform="translate(995.801 446.2408)"/><g fill-rule="evenodd" transform="matrix(1.07056 0 0 1.10877 970.3902 372.5574)"><circle cx="916.5" cy="755" r="10" filter="url(#J)" transform="matrix(.93112 0 0 .91473 67.1295 72.442)"/><circle cx="916.5" cy="755" r="10" fill="url(#K)" transform="matrix(.8 0 0 .8 187.3 159)"/><path fill="url(#L)" d="M927.125 760.5c0 3.0376-2.9941 5.5-6.6875 5.5s-6.6875-2.4624-6.6875-5.5 2.9941-5.5 6.6875-5.5 6.6875 2.4624 6.6875 5.5z"/></g><g fill-rule="evenodd" transform="matrix(1.07056 0 0 1.10877 940.0801 372.5574)"><circle cx="916.5" cy="755" r="10" filter="url(#J)" transform="matrix(.93112 0 0 .91473 67.1295 72.442)"/><circle cx="916.5" cy="755" r="10" fill="url(#M)" transform="matrix(.8 0 0 .8 187.3 159)"/><path fill="url(#N)" d="M927.125 760.5c0 3.0376-2.9941 5.5-6.6875 5.5s-6.6875-2.4624-6.6875-5.5 2.9941-5.5 6.6875-5.5 6.6875 2.4624 6.6875 5.5z"/></g><g fill-rule="evenodd" transform="matrix(1.07056 0 0 1.10877 909.77 372.5574)"><circle cx="916.5" cy="755" r="10" filter="url(#J)" transform="matrix(.93112 0 0 .91473 67.1295 72.442)"/><circle cx="916.5" cy="755" r="10" fill="url(#O)" transform="matrix(.8 0 0 .8 187.3 159)"/><path fill="url(#P)" d="M927.125 760.5c0 3.0376-2.9941 5.5-6.6875 5.5s-6.6875-2.4624-6.6875-5.5 2.9941-5.5 6.6875-5.5 6.6875 2.4624 6.6875 5.5z"/></g><path fill="url(#Q)" d="M1010.8884 654.5057c22.4655 54.4833-.9335 93.6433 36.4826 142.3928 46.6815 49.5269 98.6268 31.7083 144.0326 53.8764-9.4632-90.8593 7.8935-164.087-180.5152-196.2692z" transform="matrix(.07489 0 0 .07756 985.0417 1155.1562)"/><path fill="url(#R)" fill-rule="evenodd" stroke="url(#S)" stroke-width="8.1483" d="M953.887 670.0927c-62.1034 2.5101-120.204 23.3932-164.6336 68.2003-42.1304 42.1304-68.1769 100.3213-68.1769 164.6102 0 64.2888 26.0465 122.5033 68.1769 164.6337 42.1304 42.1305 100.3448 68.1769 164.6337 68.1769 64.2888 0 122.4797-26.0464 164.6101-68.1769 42.1305-42.1304 68.2004-100.3449 68.2004-164.6337 0-64.2889-120.1095-31.5147-162.2399-73.6451-42.1304-42.1304-6.2818-159.1654-70.5706-159.1654zm-7.9324 48.6508c1.2852 4.9633 2.7923 11.7841 3.9662 21.122 3.9502 31.4221-.918 81.7155 40.648 123.2816 41.566 41.566 91.7454 37.396 123.9387 42.056 10.5035 1.5205 18.857 3.577 24.0555 5.0928-1.8838 48.331-22.0661 91.4634-53.9547 123.3521-33.5097 33.5097-79.3801 54.119-130.7212 54.119-51.3411 0-97.2414-20.6157-130.7448-54.119-33.5033-33.5034-54.119-79.4037-54.119-130.7448 0-51.341 20.6094-97.2116 54.119-130.7212a47.942 47.942 0 0 0 .1408-.1408c32.7335-33.0115 74.3501-49.5567 122.6715-53.2977z" transform="matrix(.07489 0 0 .07756 985.0417 1155.1562)"/><path fill="url(#T)" d="M1023.5516 668.274c19.3136 46.8393-.8025 80.5051 31.3641 122.415 40.132 42.5783 84.7894 27.2596 123.8246 46.3175-8.1354-78.1117 6.7861-141.0654-155.1887-168.7325z" transform="matrix(.07489 0 0 .07756 985.0417 1155.1562)"/><path fill="url(#U)" d="M1036.1144 680.7908c15.252 37.4579-.6338 64.3808 24.7683 97.8967 31.6925 34.0503 66.9585 21.7998 97.7849 37.0406-6.4246-62.4668 5.359-112.8117-122.5532-134.9374z" transform="matrix(.07489 0 0 .07756 985.0417 1155.1562)"/><path fill="url(#V)" stroke="url(#W)" stroke-width="10" d="M964.0882 889.6981c38.506 52.8906 85.9709 43.1926 140.8128 43.8084-48.7558 127.4243-125.3563 143.4922-225.9264 100.1337l85.1136-143.942z" transform="matrix(.07489 0 0 .07756 985.0417 1155.1562)"/><path fill="url(#X)" stroke="url(#Y)" stroke-width="10" d="M944.1776 863.5291c-27.8572-56.0294-22.54-58.4342-23.156-113.2761-127.4241 48.7558-139.737 194.824-67.59 264.7282l90.746-151.452z" transform="matrix(.07489 0 0 .07756 985.0417 1155.1562)"/><path fill="none" stroke="#fff" stroke-width="10" marker-end="url(#Z)" marker-start="url(#aa)" d="M169.7056 1122.1035l1773.4238-995.6064"/></svg>